<svg width="239" height="24" viewBox="0 0 239 24" fill="none" xmlns="http://www.w3.org/2000/svg">
<g clip-path="url(#clip0)">
<path d="M36.8101 11.4301C36.8101 15.2461 39.6361 18.1981 43.5781 18.1981C47.5201 18.1981 50.3641 15.2461 50.3641 11.4301C50.3641 7.61411 47.5201 4.66211 43.5781 4.66211C39.6361 4.66211 36.8101 7.61411 36.8101 11.4301ZM39.3841 11.4301C39.3841 9.03611 41.1301 7.20011 43.5781 7.20011C46.0441 7.20011 47.7721 9.03611 47.7721 11.4301C47.7721 13.8241 46.0441 15.6601 43.5781 15.6601C41.1301 15.6601 39.3841 13.8241 39.3841 11.4301ZM60.9743 18.0001H63.5843L59.3003 4.86011H56.6543L52.3343 18.0001H54.8903L55.5023 16.1281H60.3623L60.9743 18.0001ZM56.3123 13.6441L57.9323 8.65811L59.5523 13.6441H56.3123ZM72.9689 8.69411H75.5429C75.5429 6.30011 73.5449 4.66211 70.8449 4.66211C68.0909 4.66211 66.1829 6.40811 66.1829 8.80211C66.1829 10.4761 67.1189 11.7901 68.8469 12.2761C70.0169 12.6001 71.4029 12.5101 72.2489 12.8161C72.7709 12.9961 73.1849 13.4101 73.1849 14.0581C73.1849 15.0121 72.3749 15.7501 70.9889 15.7501C69.6389 15.7501 68.6309 15.0481 68.6309 14.0041H66.0749C66.0749 16.4881 68.1629 18.1981 70.9529 18.1981C73.8329 18.1981 75.7409 16.3981 75.7409 13.9141C75.7409 12.1501 74.7149 10.8721 73.0409 10.3681C71.7809 9.99011 70.5029 10.1521 69.6569 9.84611C69.0989 9.64811 68.7389 9.23411 68.7389 8.67611C68.7389 7.79411 69.5309 7.11011 70.8089 7.11011C72.0689 7.11011 72.9329 7.74011 72.9689 8.69411ZM79.3233 18.0001H81.8973V4.86011H79.3233V18.0001ZM92.425 8.69411H94.999C94.999 6.30011 93.001 4.66211 90.301 4.66211C87.547 4.66211 85.639 6.40811 85.639 8.80211C85.639 10.4761 86.575 11.7901 88.303 12.2761C89.473 12.6001 90.859 12.5101 91.705 12.8161C92.227 12.9961 92.641 13.4101 92.641 14.0581C92.641 15.0121 91.831 15.7501 90.445 15.7501C89.095 15.7501 88.087 15.0481 88.087 14.0041H85.531C85.531 16.4881 87.619 18.1981 90.409 18.1981C93.289 18.1981 95.197 16.3981 95.197 13.9141C95.197 12.1501 94.171 10.8721 92.497 10.3681C91.237 9.99011 89.959 10.1521 89.113 9.84611C88.555 9.64811 88.195 9.23411 88.195 8.67611C88.195 7.79411 88.987 7.11011 90.265 7.11011C91.525 7.11011 92.389 7.74011 92.425 8.69411ZM105.422 18.0001H107.996V12.6541H112.226V10.1341H107.996V7.38011H115.628V4.86011H105.422V18.0001ZM117.958 11.4301C117.958 15.2461 120.784 18.1981 124.726 18.1981C128.668 18.1981 131.512 15.2461 131.512 11.4301C131.512 7.61411 128.668 4.66211 124.726 4.66211C120.784 4.66211 117.958 7.61411 117.958 11.4301ZM120.532 11.4301C120.532 9.03611 122.278 7.20011 124.726 7.20011C127.192 7.20011 128.92 9.03611 128.92 11.4301C128.92 13.8241 127.192 15.6601 124.726 15.6601C122.278 15.6601 120.532 13.8241 120.532 11.4301ZM145.566 4.86011H143.01V12.9421C143.01 14.4721 141.894 15.6601 140.328 15.6601C138.744 15.6601 137.628 14.4721 137.628 12.9421V4.86011H135.054V13.0501C135.054 15.9481 137.25 18.1981 140.328 18.1981C143.298 18.1981 145.566 16.0021 145.566 13.0501V4.86011ZM157.726 4.86011V13.4461L152.236 4.86011H149.68V18.0001H152.236V9.41411L157.726 18.0001H160.282V4.86011H157.726ZM168.889 4.86011H164.497V18.0001H168.889C172.705 18.0001 175.459 15.1741 175.459 11.4481C175.459 7.72211 172.705 4.86011 168.889 4.86011ZM167.071 7.38011H168.871C171.211 7.38011 172.885 9.14411 172.885 11.4481C172.885 13.7521 171.211 15.4801 168.871 15.4801H167.071V7.38011ZM186.081 18.0001H188.691L184.407 4.86011H181.761L177.441 18.0001H179.997L180.609 16.1281H185.469L186.081 18.0001ZM181.419 13.6441L183.039 8.65811L184.659 13.6441H181.419ZM193.267 18.0001H195.841V7.38011H199.657V4.86011H189.451V7.38011H193.267V18.0001ZM202.954 18.0001H205.528V4.86011H202.954V18.0001ZM209.161 11.4301C209.161 15.2461 211.987 18.1981 215.929 18.1981C219.871 18.1981 222.715 15.2461 222.715 11.4301C222.715 7.61411 219.871 4.66211 215.929 4.66211C211.987 4.66211 209.161 7.61411 209.161 11.4301ZM211.735 11.4301C211.735 9.03611 213.481 7.20011 215.929 7.20011C218.395 7.20011 220.123 9.03611 220.123 11.4301C220.123 13.8241 218.395 15.6601 215.929 15.6601C213.481 15.6601 211.735 13.8241 211.735 11.4301ZM234.393 4.86011V13.4461L228.903 4.86011H226.347V18.0001H228.903V9.41411L234.393 18.0001H236.949V4.86011H234.393Z" fill="#8893A2"/>
<path fill-rule="evenodd" clip-rule="evenodd" d="M21.565 4.75358C19.7483 2.42922 17.0816 0.958206 14.1326 0.958206C8.42918 0.958206 4.25647 6.25826 4.25647 12C4.25647 16.0027 6.91283 18.9981 9.86786 18.9981C10.1439 18.9981 10.4179 18.9731 10.6879 18.9234C8.70885 17.48 7.4425 14.851 7.4425 12C7.4425 7.46027 10.5135 3.92257 14.1326 3.92257C18.0796 3.92257 20.8243 7.84227 20.8243 12C20.814 15.0707 19.7193 18.1237 17.7929 20.3764C16.1116 22.3428 13.9339 23.5898 11.5395 23.9854C11.5395 23.9854 11.7392 24.0001 12.0002 24.0001C18.6276 24.0001 24 18.6274 24 12C24 9.27729 23.0927 6.76693 21.565 4.75358ZM19.7435 12.0001C19.7435 7.99708 17.0872 5.00172 14.1325 5.00172C13.8561 5.00172 13.5825 5.02672 13.3121 5.07672C15.2915 6.52006 16.5575 9.14909 16.5575 12.0001C16.5575 16.5398 13.4868 20.0775 9.86776 20.0775C5.92039 20.0775 3.17603 16.1578 3.17603 12.0001C3.18603 8.92942 4.28104 5.87639 6.20706 3.6237C7.88874 1.65735 10.0664 0.410337 12.4605 0.0146668C12.4605 0.0146668 12.2611 0 12.0001 0C5.37272 0 0 5.37272 0 12.0001C0 14.7225 0.907342 17.2328 2.43536 19.2469C4.25171 21.5705 6.91873 23.0419 9.86776 23.0419C15.5712 23.0419 19.7435 17.7418 19.7435 12.0001Z" fill="#8893A2"/>
</g>
<defs>
<clipPath id="clip0">
<rect width="239" height="24" fill="white"/>
</clipPath>
</defs>
</svg>
